<?xml version="1.0" encoding="UTF-8"?><svg id="a" xmlns="http://www.w3.org/2000/svg" viewBox="0 0 350 160"><polygon points="343.77 55.88 343.77 56.55 296.46 103.53 281.58 103.53 327.52 56.51 343.77 55.88" style="fill:#fff;"/><path d="M29.33,55.38c21.48-3.88,34.76,16.06,24.35,34.94-12.2,22.12-49.6,18.77-47.35-9.64.16-2.07.42-3.88,1.64-5.64,1.52-2.2,15.96-16.6,18.21-18.19,1.07-.75,1.83-1.23,3.16-1.47ZM22.45,90.07c1.71,1.71,5.59,3.04,8.02,2.9,15.49-.86,18.95-28.07.74-25.78-9.18,1.15-15.54,16.1-8.76,22.88Z" style="fill:#fff;"/><path d="M215.42,55.88l-7.33,29.45c-.03,9.48,11.58,9.24,15.64,1.69,4.53-8.44,4.73-22.43,9.23-31.14h12.9c-2.86,10.17-4.68,21.9-8.3,31.74-5.16,14-16.5,20.37-31.41,16.25-22.1-6.1-6.37-33.42-4.62-47.99h13.89Z" style="fill:#fff;"/><path d="M79.79,55.88l-7.32,30.1c.31,7.02,9.04,8.19,13.61,4.32,5.48-4.65,8.08-27.02,10.91-34.42h13.23c-2.03,9.87-4.38,20.87-7.61,30.44-3.92,11.61-10.21,18.24-23.12,18.57-31.73.79-17.54-30.93-12.93-49h13.23Z" style="fill:#fff;"/><path d="M159.18,104.19h-13.23l13.54-48.35c12.52.16,35.12-2.99,34.81,15.6-.28,16.55-17.92,19.75-31.17,19.16l-3.94,13.59ZM165.8,79.7c16.09,3.37,22.13-14.69,2.67-12.54l-2.67,12.54Z" style="fill:#fff;"/><polygon points="155.21 55.88 152.54 67.77 138.08 67.86 127.75 104.19 115.52 104.19 124.78 67.8 110.88 67.8 113.53 55.88 155.21 55.88" style="fill:#fff;"/><path d="M290.84,55.88l-2.71,11.85-14.43.13-6.54,24.89c-.56,1.17-10.35,11.06-11.19,11.3-1.47.43-3.29.03-4.83.14l9.27-36.4h-13.89l2.65-11.91h41.68Z" style="fill:#fff;"/><polygon points="323.26 55.88 322.27 57.87 276.62 103.53 261.73 103.53 262.72 101.54 308.37 55.88 323.26 55.88" style="fill:#fff;"/></svg>