<?xml version="1.0" encoding="UTF-8"?><svg id="a" xmlns="http://www.w3.org/2000/svg" viewBox="0 0 350 160"><path d="M110.73,103.65c-.57.67-1.4,1.05-2.28,1.05-.79,0-1.55-.31-2.11-.86l-7.29-7.22c-.95-.94-2.47-1.04-3.52-.2-3.63,2.88-8.24,4.61-13.26,4.61-5.86,0-11.17-2.35-15.01-6.16-3.84-3.8-6.22-9.06-6.22-14.87s2.38-11.06,6.22-14.87,9.15-6.16,15.01-6.16c5.02,0,9.63,1.72,13.26,4.61,1.05.83,2.57.74,3.52-.2l7.29-7.22c.56-.55,1.32-.86,2.11-.86.88,0,1.72.38,2.28,1.05,5.42,6.4,8.69,14.64,8.69,23.65s-3.27,17.26-8.69,23.65ZM122.11,119.46c-.63-.63-.99-1.48-.99-2.37,0-.82.31-1.61.86-2.23,8.31-9.28,13.35-21.49,13.35-34.86s-5.05-25.59-13.35-34.86c-.55-.62-.86-1.41-.86-2.23,0-.89.35-1.74.99-2.37l7.03-6.96c1.07-1.06,1.03-2.78-.08-3.79-12.29-11.24-28.73-18.12-46.78-18.12-19.05,0-36.29,7.65-48.78,20.01-10.02,9.93-16.97,22.9-19.33,37.39-.26,1.6.99,3.04,2.62,3.04h10.78c1.27,0,2.36-.88,2.6-2.12,2.04-10.5,7.24-19.9,14.58-27.17,9.6-9.51,22.87-15.4,37.52-15.4,13.5,0,25.82,4.99,35.18,13.21.85.74,1.21,1.92.9,3.04-.14.52-.44.99-.82,1.37l-6.66,6.6c-.65.64-1.53,1-2.44,1-.81,0-1.6-.28-2.22-.8-6.47-5.41-14.82-8.66-23.94-8.66-10.26,0-19.54,4.12-26.26,10.78-6.72,6.66-10.88,15.86-10.88,26.02s4.16,19.36,10.88,26.02c6.72,6.66,16.01,10.78,26.26,10.78,9.12,0,17.48-3.26,23.94-8.66.62-.52,1.41-.8,2.22-.8.92,0,1.8.36,2.44,1l6.66,6.6c.38.38.68.85.82,1.37.31,1.12-.06,2.3-.9,3.05-9.36,8.22-21.68,13.21-35.18,13.21-14.65,0-27.92-5.88-37.52-15.39-7.34-7.27-12.54-16.66-14.58-27.17-.24-1.23-1.34-2.12-2.6-2.12h-10.78c-1.63,0-2.88,1.45-2.62,3.04,2.35,14.49,9.3,27.46,19.33,37.39,12.48,12.36,29.73,20.01,48.78,20.01,18.05,0,34.49-6.87,46.78-18.12,1.11-1.01,1.15-2.74.08-3.79l-7.03-6.96Z" style="fill:#fff;"/><path d="M168.22,101.23c-2.27,0-4.33-.56-6.17-1.69-1.84-1.12-3.3-2.63-4.37-4.51-1.07-1.88-1.61-3.99-1.61-6.33l.06-19.15c0-2.25.53-4.31,1.58-6.17,1.05-1.86,2.5-3.36,4.34-4.48,1.84-1.12,3.89-1.68,6.17-1.68s4.32.55,6.14,1.65c1.81,1.1,3.26,2.59,4.34,4.45,1.07,1.87,1.61,3.95,1.61,6.24v2.82c0,.16-.08.25-.25.25h-6.94c-.17,0-.25-.08-.25-.25v-2.82c0-1.35-.44-2.52-1.33-3.5-.89-.98-2-1.47-3.32-1.47-1.49,0-2.62.5-3.41,1.5-.79,1-1.18,2.16-1.18,3.47v19.15c0,1.52.44,2.75,1.33,3.68.89.94,1.98,1.42,3.26,1.42s2.43-.52,3.32-1.56c.89-1.04,1.33-2.22,1.33-3.53v-2.82c0-.17.08-.25.25-.25h7c.17,0,.25.08.25.25v2.82c0,2.34-.55,4.44-1.64,6.33-1.1,1.88-2.55,3.38-4.37,4.51-1.82,1.13-3.86,1.69-6.14,1.69ZM205.16,100.62h-20.02c-.16,0-.24-.1-.24-.31l.06-42.17c0-.16.08-.25.25-.25h19.89c.17,0,.25.1.25.31v6.87c0,.16-.08.25-.25.25h-12.7v9.58h12.7c.17,0,.25.08.25.25l.06,6.94c0,.16-.08.24-.25.24h-12.76v10.74h12.76c.17,0,.25.1.25.31v7c0,.17-.08.25-.25.25ZM208.19,100.31l7.69-42.17c.04-.16.14-.25.31-.25h8.99c.16,0,.26.08.31.25l7.37,42.17c.05.2-.04.31-.24.31h-6.89c-.16,0-.26-.1-.31-.31l-.68-4.48h-8.43l-.68,4.48c-.04.2-.14.31-.31.31h-6.88c-.17,0-.25-.1-.25-.31ZM220.34,72.02l-2.79,17.25h5.95l-2.54-17.25-.37-2.28-.25,2.28ZM244.01,100.62h-7c-.17,0-.25-.1-.25-.31l.12-42.17c0-.16.08-.25.25-.25h12.52c2.23,0,4.28.54,6.17,1.62,1.88,1.08,3.38,2.54,4.49,4.36,1.11,1.82,1.67,3.88,1.67,6.17,0,1.52-.23,2.88-.68,4.09-.45,1.21-.99,2.23-1.61,3.07-.62.84-1.18,1.46-1.67,1.87,2.23,2.46,3.34,5.34,3.34,8.65l.07,12.58c0,.2-.1.31-.31.31h-7.01c-.17,0-.25-.06-.25-.19v-12.7c0-1.47-.53-2.75-1.58-3.84-1.05-1.08-2.34-1.62-3.87-1.62h-4.1l-.06,18.05c0,.2-.08.31-.25.31ZM244.32,65.26v9.63h5.34c1.28,0,2.42-.47,3.41-1.41.99-.94,1.48-2.09,1.48-3.44s-.48-2.43-1.45-3.38c-.97-.94-2.12-1.41-3.44-1.41h-5.34ZM278.59,100.62h-7.01c-.16,0-.24-.1-.24-.31v-34.99h-8.06c-.21,0-.31-.1-.31-.31l.06-6.87c0-.16.08-.25.25-.25h23.55c.21,0,.31.08.31.25v6.87c0,.2-.08.31-.25.31h-8.12l.06,34.99c0,.2-.08.31-.25.31ZM285.84,100.31l7.69-42.17c.04-.16.14-.25.31-.25h8.99c.17,0,.27.08.31.25l7.38,42.17c.04.2-.04.31-.25.31h-6.88c-.17,0-.27-.1-.31-.31l-.68-4.48h-8.43l-.69,4.48c-.04.2-.14.31-.31.31h-6.88c-.17,0-.25-.1-.25-.31ZM297.99,72.02l-2.79,17.25h5.95l-2.54-17.25-.38-2.28-.24,2.28ZM323.71,101.23c-2.23,0-4.27-.56-6.11-1.69-1.84-1.12-3.31-2.62-4.4-4.48-1.1-1.86-1.65-3.92-1.65-6.17v-2.82c0-.2.1-.31.31-.31h6.95c.17,0,.25.1.25.31v2.82c0,1.35.45,2.5,1.36,3.47.91.96,2,1.44,3.29,1.44s2.37-.49,3.28-1.47c.91-.98,1.37-2.13,1.37-3.44,0-1.52-.99-2.83-2.98-3.93-.66-.37-1.69-.94-3.1-1.72-1.41-.77-2.73-1.51-3.97-2.21-2.27-1.31-3.95-2.95-5.05-4.94-1.09-1.99-1.64-4.23-1.64-6.72,0-2.29.56-4.35,1.67-6.17,1.11-1.82,2.59-3.26,4.43-4.33,1.84-1.06,3.83-1.59,5.99-1.59s4.2.54,6.04,1.62c1.84,1.08,3.31,2.54,4.4,4.36,1.1,1.82,1.65,3.86,1.65,6.11v5.04c0,.16-.08.24-.25.24h-6.95c-.16,0-.24-.08-.24-.24l-.07-5.04c0-1.43-.45-2.6-1.36-3.5-.91-.9-1.98-1.35-3.22-1.35s-2.38.48-3.29,1.44c-.91.96-1.36,2.1-1.36,3.41s.29,2.48.86,3.38c.58.9,1.63,1.76,3.17,2.58.21.12.61.33,1.21.64.59.3,1.24.65,1.95,1.04.7.39,1.33.73,1.89,1.01.56.29.9.47,1.02.55,2.07,1.15,3.7,2.55,4.9,4.21,1.2,1.66,1.8,3.69,1.8,6.11s-.55,4.43-1.64,6.29c-1.1,1.86-2.57,3.34-4.41,4.42-1.84,1.08-3.87,1.62-6.1,1.62Z" style="fill:#fff;"/></svg>