<?xml version="1.0" encoding="UTF-8"?><svg id="a" xmlns="http://www.w3.org/2000/svg" viewBox="0 0 350 160"><path d="M166.27,31.93c-10.56,2.73-19.71,15.01-21.22,25.36-3.12,21.43,2.33,50.21,0,72.43,6.34-.88,16.21-7.17,17.48-13.6,3.78-19.19-2.01-52.3.03-73.61.4-4.21,1.35-7.11,3.72-10.57Z" style="fill:#fff;"/><path d="M171.8,40.68c-2.65,14.44,1.98,36.82,0,52.13,26.13,1.87,40.46-24.66,29.43-47.21-5.17-10.59-26.4-21.41-29.43-4.92Z" style="fill:#fff;"/><path d="M96.84,1.84v156.32h156.32V1.84H96.84ZM171.81,101.12c1.41,13.2-2.6,27.97-15.34,34.03-6.52,3.1-17.08,6.82-19.77-3.08,1.82-24-2.28-51.19.02-74.8,3.12-32.09,42.72-48.33,66.11-24.08,24.85,25.76,5.47,72.18-31.02,67.94Z" style="fill:#fff;"/></svg>