<?xml version="1.0" encoding="UTF-8"?><svg id="a" xmlns="http://www.w3.org/2000/svg" viewBox="0 0 350 160"><polygon points="151.12 42.08 168.25 68.33 168.25 42.6 168.77 42.08 178.29 42.08 178.29 85.25 168.25 85.25 151.29 59 151.29 85.25 141.25 85.25 141.25 42.6 141.77 42.08 151.12 42.08" style="fill:#fff;"/><polygon points="240.41 42.08 257.55 68.33 257.55 42.6 258.07 42.08 267.58 42.08 267.58 85.25 257.55 85.25 240.59 59 240.59 85.25 230.55 85.25 230.55 42.6 231.07 42.08 240.41 42.08" style="fill:#fff;"/><path d="M50.58,85.25h-10.21l-3.25-8.43-16.08-.15-3.34,8.58H6.97l17.29-43c.35-.24,7.65-.31,8.49-.16.39.07.66.17.84.55l16.99,42.62ZM24.27,67.98h9.34c-1.6-3.69-2.61-7.76-4.35-11.39-.17-.35,0-.9-.67-.7-.61.19-3.78,10.62-4.33,12.09Z" style="fill:#fff;"/><path d="M182.79,85.25l16.99-42.61.83-.55,7.98-.02,17.81,43.19h-10.73l-3.33-8.59-16.09.16-3.08,8.43h-10.38ZM209.09,67.98l-4.67-12.43-4.67,12.43h9.34Z" style="fill:#fff;"/><polygon points="343.03 42.08 343.03 51.06 328.15 51.06 328.15 59.35 342.34 59.35 342.34 67.98 328.15 67.98 328.15 76.61 343.03 76.61 343.03 85.25 318.11 85.25 318.11 42.6 318.63 42.08 343.03 42.08" style="fill:#fff;"/><path d="M308.07,73.85l3.79,8.61c-11.63,6.72-27.42,4-34.42-7.91-9.42-16.01,4.7-34.12,22.15-33.15,3.99.22,8.59,1.46,11.94,3.63l.32.39-3.77,7.91-.79.1c-11.06-7.16-27.49,3.24-20.51,16.28,4.14,7.73,14.34,8.02,21.29,4.14Z" style="fill:#fff;"/><polygon points="115.64 42.08 115.64 51.06 100.41 51.06 100.41 59.35 114.26 59.35 114.26 67.98 100.41 67.98 100.41 85.25 90.38 85.25 90.38 42.6 90.9 42.08 115.64 42.08" style="fill:#fff;"/><polygon points="132.6 42.08 132.6 85.25 122.57 85.25 122.57 42.6 123.08 42.08 132.6 42.08" style="fill:#fff;"/><rect x="55.07" y="42.08" width="9.69" height="43.16" style="fill:#fff;"/><path d="M236.61,99.06c2.64.53,3.64,3.94,3.2,6.31-.23,1.25-1.06,1.58-1.3,2.67,3.14.67,3.74,5.14,2.24,7.59-.47.77-2.61,2.43-3.45,2.43h-7.79v-18.99c2.09.29,5.15-.39,7.1,0ZM233.32,107c4.35.29,4.24-5.18,0-5.18v5.18ZM233.32,114.94c6.03.91,6.03-6.09,0-5.18v5.18Z" style="fill:#fff;"/><path d="M193.17,99.06v13.64c0,.21,1.06,1.82,1.39,2.06,1.07.78,3.14.66,4.05-.26.22-.22,1.14-2.61,1.14-2.84v-12.6h3.81v12.95c0,.33-.75,2.75-.97,3.18-2.22,4.33-9.59,4.67-12.13.56-.27-.44-1.09-2.36-1.09-2.71v-13.98h3.81Z" style="fill:#fff;"/><path d="M125.33,103.89c-1.16-.23-1.77-1.39-3.02-1.64-9.3-1.92-9.1,14.18-.35,12.62,1.39-.25,2.09-1.36,3.37-1.64l-.16,4.15c-9.64,5.06-17.72-6.88-11.75-15.18,2.53-3.52,8.13-5.16,11.75-2.44l.17,4.15Z" style="fill:#fff;"/><polygon points="157.52 99.06 157.52 114.94 162.71 114.94 162.71 118.05 153.71 118.05 153.71 99.06 157.52 99.06" style="fill:#fff;"/></svg>