<?xml version="1.0" encoding="UTF-8"?><svg id="a" xmlns="http://www.w3.org/2000/svg" viewBox="0 0 350 160"><path d="M8.86,45.37l67.94.64-.26,68.63-68.63-.26-.5-66.75,1.45-2.25ZM38.12,51.61h-12.7v24.34l5.81-6.62,6.89-4.76v-12.96ZM16.95,108.23c5.22.5,10.26-1.88,14.1-5.25,17.38,15.27,43.64-2.41,34.68-24.21-7.9-19.22-36.8-16.14-40.7,4.46-1.06,5.58.59,11.65-7.52,12.32l-.55,12.68Z" style="fill:#fff;"/><path d="M189.98,52.14v17.46c.84-.12.76-1.14,1.61-1.83,9.33-7.53,20.57,1.32,21.17,12.12.74,13.43-12.15,23.46-22.77,12.99v3.17h-9v-43.13l.79-.79h8.2ZM194.6,72.9c-7.69,1.59-7.19,17.55,2.9,16.7,9.4-.79,8.75-19.11-2.9-16.7Z" style="fill:#fff;"/><path d="M300.04,52.14v26.46c1.23.29.87-.23,1.21-.67,3.01-3.87,5.5-8.19,8.58-12.03h9.79l-9.88,14.55,11.47,15.61h-11.11l-10.05-14.29v14.29h-9v-43.13l.79-.79h8.2Z" style="fill:#fff;"/><path d="M154,83.89h-22.22c1.25,8.49,11.04,8.57,15.09,2.1l6,4.43c-10.74,13.9-33.95,5.2-29.31-13.42,4.82-19.31,34.13-13.3,30.44,6.9ZM145.53,78.07c-1.1-8.72-12.68-8.57-13.76,0h13.76Z" style="fill:#fff;"/><path d="M229.54,65.51c23.58-3.45,26.33,28.73,6.07,31.47-22.77,3.09-25.25-28.67-6.07-31.47ZM238.48,87.41c7.54-7.54-3.36-20.32-11.2-12.52-7.6,7.56,3.51,20.21,11.2,12.52Z" style="fill:#fff;"/><path d="M266.05,65.51c26.45-3.61,25.45,35.4.1,31.37-17.77-2.82-17.02-29.06-.1-31.37ZM267.09,72.9c-8.73,1.8-6.97,17.72,2.99,16.78,10.58-.99,9.17-19.3-2.99-16.78Z" style="fill:#fff;"/><path d="M336.39,85.63c-2.23-2.62-10.79-2.38-12.29-8.07-3.16-12.03,13.55-15.99,20.69-8.48.72,1.37-2.96,4.59-3.74,5.81-1.47-3.28-8.82-4.69-8.72-.24.08,3.41,11.72,3,13.09,9.63,2.76,13.3-16.34,16.94-23.1,7.71-.33-1.28,2.94-4.44,3.91-5.44,2.14,2.62,5.68,4.9,9.13,3.3,1.6-.74,2.19-2.85,1.02-4.22Z" style="fill:#fff;"/><path d="M168.81,58.49v7.41h7.41v7.41h-7.41v14.02c0,2.62,5.24,2.38,6.92,2.61l.97,6.07c-4.46,1.19-10.71,1.93-14.23-1.81-.48-.51-2.12-3.22-2.12-3.7v-17.2h-4.77s.23-6.91.23-6.91l4.53-.5v-7.41h8.47Z" style="fill:#fff;"/><path d="M117.22,65.9c.76.46.73,1.05.82,1.83.75,6.35.72,26.42-.26,32.6-1.08,6.76-6.47,8.56-12.72,7.9s-3.64-2.72-2.87-7.35c2.06-.26,5.52.73,6.55-1.65.12-.27.81-3.25.81-3.43v-29.9h7.67Z" style="fill:#fff;"/><path d="M111.51,53.31c8.23-1.88,9.83,7.47,3.47,8.76-7.12,1.45-8.68-7.57-3.47-8.76Z" style="fill:#fff;"/><path d="M45.4,79.23c9.58-1.07,11.9,14.25,2.47,15.74-11.75,1.86-13.07-14.55-2.47-15.74Z" style="fill:#fff;"/></svg>