<?xml version="1.0" encoding="UTF-8"?><svg id="a" xmlns="http://www.w3.org/2000/svg" viewBox="0 0 350 160"><path d="M226.13,64.12v-28.31c0-.28,1.58-2.75,2.27-2.95,1.09-.33,6.56-.33,7.66-.01,2.4.68,1.49,5.53,1.62,7.15,1.31,15.94,1.8,38.47-.2,54.2-.15,1.15.17,4.53-.06,4.73-.15.13-3.35.81-3.92.87-1.84.2-6.89.25-8.1-.98s-4.88-15.27-5.79-18.17l-3.07-7.82v27.44c0,2.6-7.56,2.35-9.58,2.17l7.75-1.83c2.02-8.3.44-17.14.92-25.64.09-1.51,1.16-3.08.9-4.29-.31-1.49-2.6-1.8-3.48-.03v28.31c0,.37-6.31,1.01-7.39.86-1.61-.23-3.86-1.21-3.95-3.01l-.02-60.16c.06-.75.7-3.56.97-3.83.47-.46,11.98-.73,12.56,1.7l8.44,28.14,2.47,1.45Z" style="fill:#fff;"/><path d="M119.87,96.78c-.65,3.98-10.67,4.71-11.34.01v-61.88c.06-1.4.8-1.99,2.17-2.18,2.06-.28,9.31-.35,10.49.88l9.13,30.51c1.9.67,2.43-1.66,2.59-3.07.96-8.43-.74-18.29.1-26.9.62-2.14,10.54-2.14,11.15,0l.12,61.79c.51,5.13-10.74,4.89-12.68,2.16-3.64-8.93-5.54-19.42-9.27-28.18-.89-2.1-2.47-.87-2.47-.14v27Z" style="fill:#fff;"/><path d="M265.32,73.7c-.45-1.28-.02-2.67-1.3-4.36-1-1.32-2.18-.02-2.18.44v27c0,3.69-10.88,4.86-11.34.01l.1-62.64c.4-1,1.05-1.28,2.07-1.42,2.05-.28,9.31-.35,10.49.88,3.25,8.69,5.26,17.81,8.26,26.58.38,1.1.6,4.67,2.17,3.92s1.25-2.52,1.33-3.9c.45-8.64-.44-17.41.07-26.06.57-1.98,6.17-1.59,8.22-1.42,1.78.14,2.76.1,3.04,2.19v61.88c-.56,4.04-10.06,3.98-12.67,1.3-2.23-7-4.7-13.91-7-20.89-.44-1.34-1.01-2.79-1.27-3.51l-.18,25.53c-.74,4.27-5.9,3.09-9.4,3.21l5.26-1.27,2.48-1.88c.82-3.47-.75-25.46.1-26.47.07-.09,1.7.78,1.74.87Z" style="fill:#fff;"/><path d="M68.24,32.1c4.32-.48,9.94.8,13.32,3.7,2.54,2.18,4.23,5.66,5.03,8.91,2.15,8.69,1.8,34.2,0,43.2-1.3,6.53-7.48,12.22-14.16,12.83-10.83.99-17.93-6.68-18.8-16.98-.77-9.18-.76-25.73,0-34.91.71-8.46,5.84-15.77,14.61-16.75ZM73.56,87.49c.56-.57,1.81-5.98,1.92-7.22.66-7.23.72-22.47-.07-29.61-.21-1.9-1.16-5.88-3.13-6.45-5.14-1.48-6.76,2.03-7.25,6.45-1.03,9.26.65,20.1,0,29.54,1.4,3.98-.3,8.87,5.6,8.31.56-.05,2.64-.73,2.93-1.02Z" style="fill:#fff;"/><path d="M171.02,32.1c10.07-1.14,17.67,5.97,18.56,15.88.83,9.2.78,26.53,0,35.78-.45,5.42-2.48,10.66-7.03,13.87-10.2,7.2-24.89,1.43-26.13-11.26-1.28-13.07.87-28.36.21-41.66,1.99-6.78,7.29-11.79,14.39-12.6ZM170.05,44.19c-1.51.45-2.16,3.21-2.31,4.66-1.12,10.93.89,23.72.05,34.86,1.46,6.57,8.07,6.63,9.56,0-1.1-11.05,1.53-25.02,0-35.69-.56-3.92-3.69-4.9-7.29-3.83Z" style="fill:#fff;"/><path d="M322.87,98.9c-.55-.6-.56-10.59-2.21-13.03-.82-1.21-7.95-1.08-8.25-.79-1.37,1.36-1.29,12.82-3.49,14.37-.88.62-6.91.6-8.35.4-3.16-.42-2.08-4.07-2.12-6.52l9.7-57.36c.46-1.07.97-2.77,2.12-3.11,1.21-.36,11.65-.37,12.88-.01.64.18,1.08.72,1.26,1.36l10.63,62.57c.09,4.39-10.95,3.45-12.17,2.12ZM317.58,62.38c-.44-.52-2.15.35-2.5,1.42-.43,1.35-1.45,9.44-.99,9.9.19.18,5.04.18,5.23,0,.42-.39-1.37-10.88-1.75-11.32Z" style="fill:#fff;"/><path d="M29.28,44.96c1.46,1.47-1.41,1.88-2.21,2.56-.46.39-2.14,2.9-2.14,3.11v35.28c-1.52.3-.57-.95-.88-2.16-.21-.83-.86-1.66-.86-1.75v-29.61c0-.3,1.75-5.18,2.18-5.66.64-.72,3.43-2.23,3.92-1.74-.06-.06.1-.53-.16-.69-4.06-2.53-7.15,1.56-7.65,5.51-.88,6.93-.7,23.33-.06,30.49.43,4.81,2.59,10.02,8.2,6.54,2.65-1.64,3.07-12.05.56-14.44-.9-.86-3.44-1-3.55-1.79-.22-1.65-.36-9.95,1.35-9.95h14.37c.2,0,.85,3.21.91,3.88.57,6.7.61,20.92-1.97,26.85-5.88,13.5-28.85,10-30.33-5-1.31-13.33.9-28.96.21-42.53,4.38-17.27,30.3-15.48,32.08,2.4.84,8.42-.1,11.31-9.2,10.07-3.28-.45-1.86-4.45-2.34-7.24-.4-2.37-1.07-2.75-2.43-4.1Z" style="fill:#fff;"/><path d="M235.71,111.15c.15-.15,4.2-.16,4.35,0,.24.28.8,5.84,1.1,7.17,1.46,6.48,1.56,1.75,2.35-2.43.64-3.36-.89-5.28,4.39-4.75v16.55c0,.13-2.52.1-2.61,0-.46-.5.67-7.84-.44-7.84-.65,0-1,7.42-1.31,7.85-.08.1-2.5.08-2.59-.02-.84-1.02-.98-7.83-2.2-7.83-1.11,0,.02,7.35-.44,7.84-.09.1-2.61.13-2.61,0,0-2.37-.59-15.96,0-16.55Z" style="fill:#fff;"/><path d="M147.74,36.25v64.02c0,2.17-6.84,2.2-8.28,2.17-1.05-.02-3.25.65-3.04-.87,1.11.26,9.58-.39,9.58-.87V36.25c0-.09,1.16.05,1.74,0Z" style="fill:#fff;"/><path d="M289.71,36.25v64.02c0,2.17-6.84,2.2-8.28,2.17-1.05-.02-3.25.65-3.04-.87,1.11.26,9.58-.39,9.58-.87V36.25c0-.09,1.16.05,1.74,0Z" style="fill:#fff;"/><path d="M318.45,111.15c.12-.13,3.34-.1,3.45.03.47.58,1.36,8.68,2.21,8.68,1.12,0-.03-8.2.44-8.72.09-.1,2.61-.13,2.61,0v16.55c-4.39,1.85-4.66-8.71-5.66-8.71-1.12,0,.03,8.2-.44,8.72-.09.1-2.61.13-2.61,0,0-2.38-.56-15.94,0-16.55Z" style="fill:#fff;"/><path d="M191.29,46.27l-.87-4.79c.87,3.01,2.36,5.92,2.65,9.11.83,9.21.78,26.53,0,35.78s-5.14,14.28-13.54,16.94c-7.73.42-11.54-.82-1.04-1.04,3.61-.61,8.61-4.68,10.61-7.69.43-.64,2.2-4.5,2.2-4.77v-43.55Z" style="fill:#fff;"/><path d="M153.83,111.15c.3-.31,2.42-.14,3.06.86.87,1.38,2.01,8.72,2.61,8.72,1.12,0-.04-9.07.44-9.59.09-.1,2.61-.13,2.61,0v16.55c-.84-.13-3.24.22-3.45-.03-.35-.43-1.47-7.81-2.21-7.81-1.11,0,.02,7.35-.44,7.84-.09.1-2.61.13-2.61,0,0-2.37-.58-15.96,0-16.55Z" style="fill:#fff;"/><path d="M69.35,111.15c.12-.13,3.34-.1,3.45.03.47.58,1.36,8.68,2.21,8.68,1.12,0-.03-8.2.44-8.72.09-.1,2.61-.13,2.61,0v16.55c-4.39,1.85-4.66-8.71-5.66-8.71-1.12,0,.03,8.2-.44,8.72-.09.1-2.61.13-2.61,0,0-2.38-.56-15.94,0-16.55Z" style="fill:#fff;"/><path d="M183.45,111.15c.12-.13,3.36-.13,3.47,0,.23.29-.2,2.1.2,2.84.72.98,1.46,5.86,1.99,5.86,1.12,0-.03-8.2.44-8.72.09-.1,2.61-.13,2.61,0v16.55c-4.39,1.85-4.66-8.71-5.66-8.71-1.12,0,.03,8.2-.44,8.72-.09.1-2.61.13-2.61,0,0-2.38-.56-15.94,0-16.55Z" style="fill:#fff;"/><path d="M94.55,111.21c.23.23,1.04,3.2.99,3.85-.15,1.69-2.7,3.14-2.54,5.09.03.43.64,2.65,1.61,2.32l2.61-2.61c.6,1.54-.95,3.69-.76,4.67.14.69,2.52,2.34,1.63,3.16-.65.6-2.89-.87-3.79-.74-1.94.28-3.02,2.93-5.84-.52-2.54-3.1.49-5.12.78-7.14.21-1.47-2.46-7.18.66-8.06.76-.22,4.43-.24,4.64-.03ZM92.86,112.9c-1.74-1.74-2.36,2.71-1.74,3.48.56.69,2.65-2.57,1.74-3.48ZM91.99,122.48c-2.13-2.03-2.3,3.48-.43,3.48.09,0,1.3-1.21,1.3-1.3,0-.12-.78-2.1-.87-2.18Z" style="fill:#fff;"/><path d="M290.26,111.28c7.46-2.17,7.15,7.25,6.4,12.49s-7.51,5.53-8.54.73c-.62-2.89-1.03-12.3,2.14-13.22ZM293.19,113.77c-.77-.86-2.44.78-2.63,2.15-.33,2.34-.56,7.44,1.33,9.17,2.13.4,1.24-1.69,1.3-3.05.05-1.24.28-7.97,0-8.27Z" style="fill:#fff;"/><path d="M335.85,113.77c-.07-.11-2.5-.1-2.59,0-.34.37-.17,9.03.1,9.92.3,1.01,2.06,1.91,2.52,1.4.91-1-1.41-6.43-.87-6.97.15-.15,4.2-.16,4.36,0,.23.23.06,5.34-.16,6.38-1.03,4.8-7.76,4.72-8.54-.73-.26-1.83-.33-8.79.11-10.32.69-2.37,5.07-3.14,6.89-1.91,2.16,1.47,2.11,6.5-.47,5.7-1.57-.48-1.1-3.13-1.33-3.48Z" style="fill:#fff;"/><path d="M139.9,116.38c-1.13-.41-2,.85-2.18.86-1.54.07-.65-6.47-3.87-2.06,1.01,2.68-1.06,6.79.36,9.06.44.71,1.86,1.2,2.2.84.9-.95-1.4-6.44-.87-6.97.15-.15,4.2-.16,4.36,0,.6.6.19,8.75-2.28,9.48-7.48,2.23-7.16-7.37-6.42-12.52.91-6.4,9.33-5.1,8.7,1.3Z" style="fill:#fff;"/><path d="M119.87,111.15c.2-.2,4.78-.14,5.69-.02,4.31.58,1.33,7.65,1.32,10.04,0,1.67,1.65,4.43,1.71,6.09.03.74-3.36.57-3.47.43-.13-.16-.4-2.95-.7-4.13-.4-1.58.41-2.33-1.93-1.96-.23,1.2.32,5.75,0,6.1-.09.1-2.61.13-2.61,0,0-2.37-.59-15.96,0-16.55ZM125.09,113.77c-.09-.1-2.52-.1-2.61,0-.18.19-.18,5.04,0,5.23.09.1,2.52.1,2.61,0,.18-.19.18-5.04,0-5.23Z" style="fill:#fff;"/><path d="M63.24,111.16c-.37,2.35,3.21,15.95,2.62,16.54-.09.1-2.24.4-2.63-.51-.35-.79-.64-2.89-1.28-2.98-4-.58-1.39,2.54-2.18,3.49-.11.13-3.35.11-3.48,0s.71-1.37.84-2.2c.54-3.49,1.24-6.99,1.74-10.46.15-1.02-.13-3.72.03-3.89.22-.22,3.39.13,4.35,0ZM61.51,121.61c.14-.17.14-4.18,0-4.35-1.23-1.47-1.23,5.83,0,4.35Z" style="fill:#fff;"/><path d="M34.51,111.15c.15.17-.12,2.11.04,3,.78,4.51,1.72,9.05,2.57,13.55-1.11.01-2.36.35-3.07-.86-.56-.96-.09-2.49-.85-2.62-3.93-.69-1.43,2.58-2.18,3.49-.14.17-2.66-.12-3.48,0,.57-4.22,1.96-8.47,2.58-12.66.15-1.02-.13-3.72.03-3.89.15-.16,4.21-.16,4.36,0ZM32.76,121.61c.14-.17.14-4.18,0-4.35-1.23-1.47-1.23,5.83,0,4.35Z" style="fill:#fff;"/><path d="M232.22,126.4c-.59,2.2-5.99,2.38-7.42-.41-.76-1.49-.73-11.64,0-13.1.92-1.83,5.78-2.39,6.5-1.67.08.08.93,2.01.93,2.12,0,3.12.62,10.73,0,13.06ZM229.61,113.77c-.09-.1-2.52-.1-2.61,0-.38.42-.38,10.91,0,11.33.09.1,2.52.1,2.61,0,.38-.42.38-10.91,0-11.33Z" style="fill:#fff;"/><path d="M213.06,112.46c-.04-.26-1.3-.95-.87-1.3.13-.11,3.36-.13,3.48,0,.39.42-.39,6.54,0,6.97.09.1,2.52.1,2.61,0,.4-.43-.39-6.54,0-6.97.09-.1,2.61-.13,2.61,0v16.55c0,.13-2.52.1-2.61,0-.4-.43.39-6.54,0-6.97-.09-.1-2.52-.1-2.61,0-.4.43.39,6.54,0,6.97-.09.1-2.61.13-2.61,0,0-4.56.58-11,0-15.24Z" style="fill:#fff;"/><path d="M300.16,111.15c.09-.1,2.52-.1,2.61,0,.39.43-.63,4.36.44,4.36.6,0,.88-2.09,1.4-2.95.74-1.23,2.68-2.11,3.39-1.4s-2.22,4.59-2.49,5.82c-.67,3.01,3.8,10.36,3.37,10.73-.13.11-3.28.09-3.42-.06-.58-.59-1.35-6.04-2.24-6.04-1.09,0,0,5.63-.44,6.1-.09.1-2.61.13-2.61,0,0-2.46-.55-15.93,0-16.55Z" style="fill:#fff;"/><path d="M113.75,111.16c.03,2.24,3.22,15.95,2.63,16.54-.09.1-2.24.4-2.63-.51-.35-.79-.64-2.89-1.28-2.98-4-.58-1.39,2.54-2.18,3.49-.11.13-3.35.11-3.48,0-.26-.22,1.75-5.3,1.69-6.58,1.06-4.19-.72-11.25,5.26-9.95ZM112.9,121.6c.19-.18-.98-5.27-1.74-4.35-.55.66-.25,6.24,1.74,4.35Z" style="fill:#fff;"/><path d="M328.03,102.44l7.88-1.26c1.38-.92.72-3.69.86-5.3l-10.48-59.63,2.43,4.1,9.82,59.03c-1.24,4.71-6.65,2.69-10.51,3.06Z" style="fill:#fff;"/><path d="M278.93,111.27c1.77-.52,4.26-.14,5.13,1.61.65,1.31.76,10.91.3,12.53-.96,3.32-7.16,3.28-7.73-.74-.28-1.98-.26-10.41.43-11.79.24-.48,1.34-1.45,1.87-1.61ZM281.87,113.77c-.09-.1-2.52-.1-2.61,0-.38.42-.38,10.91,0,11.33.09.1,2.52.1,2.61,0,.38-.42.38-10.91,0-11.33Z" style="fill:#fff;"/><path d="M273.16,117.25c-.09.09-2.53.11-2.61,0-.3-.37.3-3.13,0-3.49-.08-.1-2.52-.09-2.61,0-.38.42-.38,10.9,0,11.32,1.46,1.65,2.44-2.12,2.62-2.92.23-1.02,2.51-.66,2.6-.57.28.29.04,3.49-.41,4.38-1.58,3.11-6.4,2.54-7.3-.58-.39-1.37-.39-10.59,0-11.95.92-3.17,6.69-3.16,7.59,0,.21.73.26,3.65.12,3.8Z" style="fill:#fff;"/><path d="M195.64,111.15c.28-.28,7.55-.26,7.84,0,.1.09.1,2.52,0,2.61-.37.34-4.9-.33-5.23,0-.14.14-.11,3.16,0,3.89.16,1.12,3.01.07,3.49.46.1.08.1,2.53,0,2.61-.36.3-3.17-.29-3.49,0-.16.15-.15,4.2,0,4.36.33.33,4.86-.34,5.23,0,.1.09.1,2.52,0,2.61-.39.36-6.44-.25-7.84,0,.44-2.33-.59-15.96,0-16.55Z" style="fill:#fff;"/><path d="M251.39,111.15c1.2.22,7.85-.5,7.84.44,0,2.15-1.55,1.97-3.04,2.21-.85.14-2.06-.52-2.19.43-.87,6.44,2.29,2.92,3.5,3.9.1.08.1,2.53,0,2.61-.36.3-3.17-.29-3.49,0-.16.15-.15,4.2,0,4.36.33.33,4.86-.34,5.23,0,.1.09.1,2.52,0,2.61-.39.36-6.44-.25-7.84,0v-16.55Z" style="fill:#fff;"/><path d="M46.7,87.2c-1.32,2.01-.83,4.6-1.91,6.8-2.88,5.85-8.8,8.41-15.07,8.45-1.03,0-3.26.63-3.04-.87,5.38.56,12.02-1.61,15.21-6.13.57-.81,3.08-6.06,3.08-6.5v-25.69c.61-.6,1.74,2.02,1.74,2.18v21.77Z" style="fill:#fff;"/><path d="M89.38,48.88l-1.75-6.09c.91-1.38,1.06.67,1.3,1.31.58,1.54,1.26,3.07,1.36,4.75v39.26c-.7,7.75-6.08,13.51-13.56,15.18-6.81.47-10.01-.84-1.02-1.02,4.72-.83,10.95-5.65,12.42-10.22.49-1.52.17-2.68.39-3.96.16-.91.86-1.66.86-1.75v-37.45Z" style="fill:#fff;"/><path d="M143.38,111.15c.25-.25,6.71-.23,6.97,0,.1.09.1,2.52,0,2.61-.34.31-4.06-.3-4.36,0-.14.14-.11,3.16,0,3.89.16,1.12,3.01.07,3.49.46.1.08.1,2.53,0,2.61-.36.3-3.17-.29-3.49,0-.16.15-.15,4.2,0,4.36.3.3,4.02-.31,4.36,0,.1.09.1,2.52,0,2.61-.37.34-5.67-.24-6.97,0,.44-2.33-.59-15.96,0-16.55Z" style="fill:#fff;"/><path d="M240.93,101.57c-1.15,1.25-8.38.79-10.45.87l8.59-1.86c-.05-.76.99-1.93.99-2.06v-62.28s.87-.04.87,0v65.32Z" style="fill:#fff;"/><path d="M21.44,113.77c-.38-.25-2.18.27-2.62,0-.11-.07-.35-2.52.47-2.62,1.08-.13,7.1-.24,7.37,0,.1.09.11,2.54,0,2.61-.35.22-2.62-.16-2.62,0v13.94c0,.13-2.61.13-2.61,0,0-2.05.58-13.55,0-13.94Z" style="fill:#fff;"/><path d="M168.64,113.77c-.38-.25-2.18.27-2.62,0-.11-.07-.35-2.52.47-2.62,1.08-.13,7.1-.24,7.37,0,.1.09.11,2.54,0,2.61-.35.22-2.62-.16-2.62,0v13.94c0,.13-2.61.13-2.61,0,0-2.05.58-13.55,0-13.94Z" style="fill:#fff;"/><path d="M123.35,99.4c-1.15,3.2-3.46,2.95-6.52,3.06-.99.03-3.28.59-3.06-.88.94.18,7.84-.48,7.84-.87v-27.87c.61-.6,1.74,2.02,1.74,2.18v24.39Z" style="fill:#fff;"/><path d="M43.22,111.15v13.94c0,.22,4.08-.25,4.36,0,.1.09.1,2.52,0,2.61-.37.34-5.67-.24-6.97,0v-16.55c0-.13,2.06.08,2.61,0Z" style="fill:#fff;"/><path d="M50.19,111.15c.12-.13,3.35-.11,3.48,0,.18.16-.77,1.32-.86,2.19-.19,1.92-.06,4.14-.05,6.12.01,2.4.91,5.54.92,7.79,0,.94-2.61.28-3.5.45.42-2.33-.56-15.94,0-16.55Z" style="fill:#fff;"/><path d="M179.96,111.15v16.55c0,.13-2.61.13-2.61,0v-16.55c0-.13,2.06.08,2.61,0Z" style="fill:#fff;"/><path d="M15.35,111.15v16.55c0,.13-2.61.13-2.61,0v-16.55c0-.13,2.06.08,2.61,0Z" style="fill:#fff;"/><path d="M314.97,111.15v16.55c0,.13-2.61.13-2.61,0v-16.55c0-.13,2.06.08,2.61,0Z" style="fill:#fff;"/><path d="M320.19,86.77c.1,1.58-2.04.55-3.5,1.29-3.07,1.54-1.86,12.3-4.28,14.01-1.6,1.13-7.36-.03-9.63.38l7.86-1.29c4.59-4.83-.52-16.46,9.56-14.39Z" style="fill:#fff;"/><path d="M36.25,58.89c-.19-1.57,1.96-.77,3.05-.86,1.89-.16,4.14.46,5.24-1.73s.32-8.55-.02-11.34c-.11-.87-1.39-2.7.44-2.62,1.65,3.65,3.73,15.86-1.28,16.57-2.27.32-5.06-.26-7.42-.02Z" style="fill:#fff;"/><path d="M132.06,61.51l-2.2-4.33-5.64-20.93c1.2-.21,1.25,1.51,1.51,2.4,2.26,7.56,4.71,15.15,6.32,22.86Z" style="fill:#fff;"/><path d="M274.03,61.51c-1.2.21-1.25-1.51-1.51-2.4-2.26-7.56-4.71-15.15-6.32-22.86l3.94,10.43,3.89,14.83Z" style="fill:#fff;"/><path d="M225.25,61.51l-7.83-25.26c1.73.3,1.44,1.83,1.82,2.97,1.02,3.03,2.06,6.14,2.99,9.21,1.28,4.25,2.94,8.65,3.02,13.09Z" style="fill:#fff;"/><path d="M67.61,48.01c.39-1.42,4.2-3.02,5.22-2.17.89.73-3.48,1.86-3.48,3.05v37.89c0,.09-1.74.09-1.74,0v-38.76Z" style="fill:#fff;"/><path d="M170.38,48.01c.43-1.58,3.59-2.68,5.22-2.17.22,1.55-1.57.57-2.65,1.27-.29.19-1.71,2.49-1.71,2.65v37.02c-2.14,0-.87-2.47-.87-3.05v-35.71Z" style="fill:#fff;"/><path d="M317.58,72.83c-1.08,1.3-1.16-4.87-.87-5.22,1.08-1.3,1.16,4.87.87,5.22Z" style="fill:#fff;"/></svg>