<?xml version="1.0" encoding="UTF-8"?><svg id="a" xmlns="http://www.w3.org/2000/svg" viewBox="0 0 350 160"><path d="M40.52,121h-1.37L4.45,100.54l-.15-39.62.7-2.01,35.06-19.92,34.6,19.92.7,2.01-.35,39.75-34.5,20.33ZM39.16,49.77c-5.82-.33-10.8.18-13.93,5.49-.52.87-.84,2.91-1.22,3.21-.42.33-2.11.4-3.26,1.17-2.37,1.57-3.58,4.83-4.06,7.49-.19,1.07.24,2.99-.16,3.57-.23.34-2.87,1.19-3.9,2.57-2.4,3.2-2.78,8.08-.91,11.59.93,1.75,3.78,3.53,4.12,4.72.37,1.25-.07,2.67.14,3.93.5,3.12,2.72,5.55,6.11,5.12-.54,3.37,1.28,8.09,4.75,9.19,1.52.48,2.98.06,4.34.43,1.08.29,1.79,1.6,3.57,1.88,1.68.26,4.26.45,4.42-1.66-.99-8.03,2.34-23.42-2.74-29.87-1.61-2.05-3.02-2.06-4.6-3.24-.86-.64-2.85-4.61-4.63-1.17-2.27,4.4,3.5,3.63,5.14,4.41.65.31,3.41,3.56,3.41,4.07v24.76c-2.14.18-2.18-1.76-2.05-3.39-5.6,3.06-9.21.86-8.87-5.42,3.68,1.17,10.98-7.09,6.83-9.18-1.96-.99-3.78.17-3.94,2.14-.11,1.27,1.45,3.39-1.31,4.2-1.02.3-4.96.33-5.93.03-2.94-.93-2.47-14.24.67-14.71.6-.09,1.34.48,1.98.47,3.75-.1,3.36-3.67.58-5.27-3.72,1.5-7.38,4.46-7.77,8.75-1.99.51-2-2.38-2.07-3.7-.23-4.29.08-8.57,5.5-7.84-.36-3.59.07-10.38,3.76-12.21,1.34-.67.97,1.02,1,1.7.26,6.38,2.97,5.42,7.87,7.82,1.54.04,2.91-2.19,2.3-3.65-1.95-3.74-3.56-.45-5.03-.42-3.58.07-2.69-8.59-1.32-10.85s5.18-3.51,7.81-3.43v20.69c0,.24,1.19,1.3,1.71,1.02l1.71-1.02v-23.41ZM43.94,73.17v-20.69c3.55-.13,8.28,1.94,8.85,5.79.3,2.02.71,8.55-2.36,8.49-1.29-.03-1.82-2.09-3.77-1.08-2.4,1.25-1.36,5.13,1.02,5.12,1.33,0,6.85-2.53,7.34-4.26l1.54-5.24c4.56,2.14,3.43,7.41,4.06,11.57,6.23,1.31,6.41,6.14,4.64,11.31-.32.94-.96,1.73-1.51.86,0-1.53-.78-3.55-1.73-4.73-.27-.34-4.15-3.64-4.41-3.77-2.5-1.32-4.87,2.5-2.43,4.48,1.62,1.32,2.74-.35,3.79.25,3.01,1.7,2.91,13.7.25,14.54-1.61.51-7.19.24-7.71-1.7-.34-1.26,1.39-2.34,0-4.01-2.12-2.56-6.27,0-4.15,3.32.29.46,1.01.41,1.38.9.51.67.42,1.72,1.37,2.59,1.05.96,3.29,1.6,4.71,1.76.97,6.36-3.58,8.31-8.82,5.38.13,1.63.09,3.57-2.05,3.39v-24.09c0-.91,2.13-3.87,3.04-4.44,1.92-1.2,3.94-.14,5.18-.96,2.78-1.83-.11-6.41-3.03-4.35-.81.57-.95,1.52-1.27,1.76-.75.56-1.78.62-2.52,1.23-1.6,1.29-3.52,3.52-3.98,5.54-.31,1.35-.73,4.51-.83,5.96-.48,6.6.39,13.71,0,20.38.17,2.11,2.74,1.92,4.42,1.66,1.78-.28,2.5-1.59,3.57-1.88,1.37-.37,2.83.05,4.34-.43,3.47-1.1,5.52-5.78,4.75-9.19,7.03.24,5.67-5.42,6.94-9.72.34-1.13,2.59-2.47,3.43-4.05,2.15-4.04,1.54-8.99-1.49-12.37-.78-.87-1.96-.95-2.62-2.14-1.24-2.22-.69-5.59-2.54-8.33-1.61-2.38-4.15-2.71-5.42-4.11s-1.34-3.72-3.42-5.42c-2.37-1.95-7.93-3.55-10.85-2.62-.78.25-1.09.83-1.12,1.6.38,7.52-.79,15.41.7,22.74l2.05-.33.68-.69Z" style="fill:#fff;"/><polygon points="345.7 70.12 345.7 89.8 340.91 89.8 340.91 70.49 340.91 70.12 345.7 70.12" style="fill:#fff;"/><path d="M188.48,71.02c.13.09,2.01,2.06,2.14,2.23,6.29,8.42-.53,18.84-11.01,17.07-7.15-1.21-8.92-8.72-7-14.8,1.85-5.89,10.99-7.81,15.87-4.5ZM179.23,85.61c.65.46,4.35.15,5.39-.18,5.83-1.87,4.48-13.53-4.88-10.92-2.6.73-3.1,5.13-2.67,7.5.08.42,1.99,3.49,2.16,3.61Z" style="fill:#fff;"/><path d="M117.67,70.12c1.38.17,3.67-.44,4.8.32.89.6,4.42,6.81,5.84,8.44.55.63.98,1.56,1.99,1.41l-.34-10.18h4.78v19.68l-4.7-.08c-1.71-3.82-4.68-7.67-7.59-10.78v10.86h-4.78v-19.68Z" style="fill:#fff;"/><path d="M144.98,89.8v-19.68h11.26c.18,0,2.91,1.2,3.32,1.45,5.96,3.62,5.95,12.49.4,16.5-.43.31-2.86,1.73-3.04,1.73h-11.95ZM149.76,85.72c12.65,1.73,12.52-13.24,0-11.53v11.53Z" style="fill:#fff;"/><path d="M274.01,89.8v-19.68h11.26c.18,0,2.91,1.2,3.32,1.45,5.96,3.62,5.95,12.49.4,16.5-.43.31-2.86,1.73-3.04,1.73h-11.95ZM278.79,85.72c12.65,1.73,12.52-13.24,0-11.53v11.53Z" style="fill:#fff;"/><path d="M213.59,70.12c2.94.61,5.46,4.72,5,7.63-.15.94-1.23,3.79-1.95,4.24s-2,.08-2.04.68l4.1,7.12c-7.04,1.11-5.58-1.48-8.27-5.01-.89-1.17-3.22-1.71-3.34-.73v5.74s-4.77,0-4.77,0v-19.68c3.3.47,8.21-.64,11.26,0ZM207.1,79.62c8.31,1.15,9.17-6.98,0-5.43v5.43Z" style="fill:#fff;"/><path d="M241.92,76.22l-4.34.03c-1.52-3.19-4.23-3.99-6.58-1.04-.48,2.13,7.14,3.23,8.39,3.87,3.31,1.7,3.82,7.92.84,10.04-4.72,3.37-13.75,1.06-14.01-5.44,1.38.1,3.01-.27,4.32.11,1.72.51,2.05,3.54,5.5,2.53,1.27-.37,1.62-2.97.7-3.37-3.79-1.64-10.97-1.55-10.53-7.72.56-7.87,16.22-8.03,15.71.98Z" style="fill:#fff;"/><path d="M325.14,70.19c1.89,6.76,4.63,13.24,7.58,19.6l-5.38-.07c.63-4.31-8.41-4.02-9.3-2.65-.42.65-.3,1.94-.97,2.43-1,.73-3.51.11-4.82.29l7.56-19.62,5.34.02ZM324.53,83.01c.32-.3-.96-3.17-1.25-3.84-.33-.75-.54-2.35-1.47-2.26l-2.05,6.1h4.78Z" style="fill:#fff;"/><polygon points="108.11 70.12 108.11 74.19 99.92 74.19 99.92 77.59 107.43 77.58 107.44 81.96 99.92 82.33 99.92 86.41 108.8 86.4 108.79 89.8 95.14 89.8 95.14 70.12 108.11 70.12" style="fill:#fff;"/><polygon points="264.45 70.12 264.46 74.19 256.26 74.19 256.26 77.59 263.77 77.58 263.78 81.96 256.26 82.33 256.26 86.41 265.14 86.4 265.14 89.8 251.48 89.8 251.48 70.12 264.45 70.12" style="fill:#fff;"/><path d="M50.42,75.55c.44,0,.44.68,0,.68s-.44-.68,0-.68Z" style="fill:#fff;"/><path d="M31.99,68.08c.44,0,.44.68,0,.68s-.44-.68,0-.68Z" style="fill:#fff;"/><path d="M29.26,75.55c.44,0,.44.68,0,.68s-.44-.68,0-.68Z" style="fill:#fff;"/></svg>