<?xml version="1.0" encoding="UTF-8"?><svg id="a" xmlns="http://www.w3.org/2000/svg" viewBox="0 0 350 160"><polygon points="304.69 65.04 313.87 65.15 316.94 82.49 320.01 65.15 329.19 65.04 329.19 94.95 323.28 94.95 323.28 75.84 319.9 94.95 314.46 94.96 310.6 75.84 310.6 94.95 304.69 94.95 304.69 65.04" style="fill:#fff;"/><polygon points="159.37 65.04 165.17 65.14 168.66 77.5 168.66 65.04 173.73 65.04 173.73 94.95 168.2 94.15 165.28 82.49 165.28 94.95 159.37 94.95 159.37 65.04" style="fill:#fff;"/><path d="M141.62,65.04l5.84.08,3.45,12.39v-12.46h5.07v29.9h-5.91c-.18-3.4-.79-7.14-1.65-10.42-.3-1.16-.11-2.58-1.73-2.87v13.29h-5.07v-29.9Z" style="fill:#fff;"/><polygon points="71.5 65.04 77.41 65.04 77.41 75.84 79.94 75.84 79.94 65.04 85.86 65.04 85.86 94.95 79.94 94.95 79.94 80.82 77.41 80.82 77.41 94.95 71.5 94.95 71.5 65.04" style="fill:#fff;"/><path d="M182.81,64.36c3.49-.65,6.86.75,8.24,4,2.1,4.94,2.55,22.63-2.48,25.8-4.42,2.14-10.57.62-11.42-4.66-.52-3.25-.55-17.53.13-20.55.52-2.3,3.28-4.18,5.52-4.59ZM183.02,70.02v18.69c0,.51,1.74,1.6,2.53,1.24,1.19-1.39,1.33-17.76.07-19.44l-2.6-.49Z" style="fill:#fff;"/><path d="M272.58,94.95v-29.9c3.87.5,12.04-1.67,13.93,2.51.79,1.76.82,22.3,0,24.07-3.37,4.73-8.87,3.12-13.93,3.33ZM278.5,70.02v19.94l2.6-.49c1.29-1.72,1.13-17.65-.08-19.45h-2.52Z" style="fill:#fff;"/><path d="M232.84,65.08l2.57,29.87h-5.08s-.12-3.61-.12-3.61l-1.99-1.42-2.58.84-.38,4.2h-5.92s3.41-29.87,3.41-29.87h10.07ZM229.49,84.97c-1.92-4.37.98-10.99-2.52-14.12l-.85,14.12h3.37Z" style="fill:#fff;"/><path d="M267.52,65.04l2.53,29.91-5.04-.04-.79-4.47-4.31-.48v4.99s-5.91,0-5.91,0l3.41-29.86,10.11-.04ZM264.13,84.97c-1.51-3.2-.65-6.82-.94-10.28-.07-.86-.44-4.59-1.59-4.66l-.85,14.95h3.38Z" style="fill:#fff;"/><path d="M200.77,65.04l1.26,9.15,1.26-9.15h5.91c.51.49-2.6,11.3-2.6,13.71,0,4.94,2.92,11.15,3.44,16.19l-5.83-.07-2.19-10.73-2.15,10.77-5.88.03c-.6-.58,3.22-13.51,3.21-16.19,0-2.18-2.97-13.17-2.37-13.7h5.92Z" style="fill:#fff;"/><path d="M243.86,89.96c4.11-.26,3.49-4.41,3.38-7.48h5.08s-1.06,10.6-1.06,10.6c-5.22,3.31-12.58,2.72-13.33-4.34-.43-4.02-.48-16.75.68-20.14,1.81-5.26,9.02-5.68,12.41-1.87,2.19,2.46,1.04,6.94,1.3,9.95h-5.08s-.4-5.84-.4-5.84l-2.98-.81v19.94Z" style="fill:#fff;"/><polygon points="138.24 65.04 138.25 70.03 133.71 70.14 132.44 71.38 132.33 76.67 138.25 76.67 138.26 81.19 132.7 82.43 132.33 89.13 139.09 89.13 139.09 94.95 126.41 94.95 126.41 65.04 138.24 65.04" style="fill:#fff;"/><polygon points="302.15 65.04 302.16 70.03 296.24 70.02 296.24 76.67 302.17 77.14 302.16 81.66 296.24 81.65 296.24 89.13 302.21 89.49 303 94.95 290.33 94.95 290.33 65.04 302.15 65.04" style="fill:#fff;"/><polygon points="101.07 65.04 101.07 70.03 95.15 70.02 95.14 76.2 101.07 76.67 101.07 81.66 95.15 81.65 95.15 89.13 101.07 89.13 101.07 94.95 89.24 94.95 89.24 65.04 101.07 65.04" style="fill:#fff;"/><path d="M9.82,94.11l29.02-5.87,5.61,10.85c-5.95-1.01-14.82-5.18-20.66-5.01s-14.17,3.74-19.88,5.02l19.85-38.2c1.87,1.32,1.06,1.53.59,3.05-1.24,4.08-16.04,28.67-14.53,30.16Z" style="fill:#fff;"/><path d="M336.76,65.08c.04,1.83.55,3.59.87,5.39.2,1.1-.76,3.48,1.26,2.89l1.31-8.27,5.88-.03c-2.52,9.83-6.04,19.59-5.07,29.9h-5.08c.79-10.13-2.82-19.76-5.08-29.48l5.89-.39Z" style="fill:#fff;"/><polygon points="68.96 65.04 68.97 70.03 65.58 70.02 65.58 94.95 59.67 94.95 59.67 71.27 56.4 69.92 56.29 65.04 68.96 65.04" style="fill:#fff;"/><polygon points="117.97 65.04 117.97 89.96 124.73 89.96 124.72 94.95 112.05 94.95 112.05 65.04 117.97 65.04" style="fill:#fff;"/><polygon points="36.85 84.98 21.65 84.98 27.14 65.86 36.85 84.98" style="fill:#fff;"/></svg>