<?xml version="1.0" encoding="UTF-8"?><svg id="a" xmlns="http://www.w3.org/2000/svg" viewBox="0 0 350 160"><path d="M75.68,33.86h19.57c5.37,0,12.17,1.28,12.17,10.4s-9.72,12.84-16.93,12.84h-14.8v-23.24ZM75.68,69.49h11.15c18.32,0,27.66,4.01,27.66,14.73,0,9.5-7.49,13.52-19.24,13.52h-17.84l-20.39,14.28h0s38.09,0,38.09,0c22.81,0,38.17-8.22,38.17-27.22,0-16.58-13.59-23.09-25.72-23.09,8.38,0,18.29-7.51,18.29-20.25s-11.64-21.88-24.93-21.88h-47.31l3.41,7.58v78.22l18.66-13.07v-22.8Z" style="fill:#fff;"/><path d="M164,33.86h12.71c5.24,0,32,1.33,32,31.94,0,34.93-32,31.93-32,31.93h-10.98s-20.41,14.29-20.41,14.29h0s36.63,0,36.63,0c22.82,0,46.2-14.04,46.2-46.23,0-28.55-20.42-46.23-46.2-46.23h-40.03l3.41,7.58v78.22l18.67-13.07v-58.44Z" style="fill:#fff;"/><path d="M256.23,65.79c0-26.14,18.01-33.49,29.67-33.49s29.68,7.35,29.68,33.49-18.01,33.49-29.68,33.49-29.67-7.35-29.67-33.49M236.78,65.79c0,36.88,29.81,47.25,49.13,47.25s49.13-10.37,49.13-47.25-29.81-47.24-49.13-47.24-49.13,10.36-49.13,47.24" style="fill:#fff;"/><path d="M14.97,19.57v115.24l18.23-12.77V19.57H14.97Z" style="fill:#fff;"/><path d="M36.61,126.3l-21.64,15.15h319.04v-15.15H36.61Z" style="fill:#fff;"/></svg>