<?xml version="1.0" encoding="UTF-8"?><svg id="a" xmlns="http://www.w3.org/2000/svg" viewBox="0 0 350 160"><path d="M342.24,95.96h-8.04l-12.32-14.34v14.34h-7.34v-42.27h7.34v24.11l11.8-12.32h8.33l-13.07,14.05,13.3,16.42Z" style="fill:#fff;"/><path d="M295.63,96.65c-4.55,0-8.35-1.5-11.39-4.51-3.01-3.05-4.51-6.82-4.51-11.33s1.5-8.35,4.51-11.39c3.01-3.05,6.8-4.57,11.39-4.57,3.7,0,6.82.98,9.37,2.95,2.58,1.97,4.26,4.26,5.03,6.88l-6.59,2.6c-.5-1.81-1.43-3.24-2.78-4.28-1.35-1.08-2.99-1.62-4.92-1.62-2.47,0-4.53.87-6.19,2.6-1.66,1.73-2.49,3.99-2.49,6.77s.83,5.03,2.49,6.77c1.66,1.73,3.74,2.6,6.25,2.6,1.93,0,3.59-.52,4.97-1.56,1.39-1.08,2.33-2.51,2.83-4.28l6.59,2.66c-.77,2.58-2.45,4.86-5.03,6.82-2.58,1.93-5.76,2.89-9.54,2.89Z" style="fill:#fff;"/><path d="M267.66,65.49h6.82v30.47h-6.82v-4.11c-2.39,3.2-5.74,4.8-10.06,4.8s-7.96-1.5-10.81-4.51c-2.85-3.05-4.28-6.84-4.28-11.39s1.41-8.27,4.22-11.16c2.85-2.89,6.48-4.34,10.87-4.34s7.75,1.52,10.06,4.57v-4.34ZM258.59,90.18c2.62,0,4.74-.87,6.36-2.6,1.66-1.77,2.49-4.05,2.49-6.82s-.83-5.09-2.49-6.82c-1.62-1.73-3.74-2.6-6.36-2.6s-4.59.91-6.25,2.72c-1.66,1.77-2.49,4.01-2.49,6.71s.83,4.95,2.49,6.77c1.66,1.77,3.74,2.66,6.25,2.66Z" style="fill:#fff;"/><path d="M235.69,95.96c-3.59,0-6.32-.98-8.21-2.95-1.89-1.97-2.83-4.66-2.83-8.1v-13.13h-5.32v-6.3h2.78c2,0,3.01-1.04,3.01-3.12v-4.8h7.17v7.92h7.98v6.3h-8.21v12.32c0,3.62,1.7,5.44,5.09,5.44h3.35v6.42h-4.8Z" style="fill:#fff;"/><path d="M202.19,96.6c-3.78,0-6.98-.87-9.6-2.6-2.62-1.77-4.41-4.26-5.38-7.46l7-2.66c.54,2.04,1.56,3.62,3.06,4.74,1.5,1.08,3.37,1.62,5.61,1.62,2.08,0,3.7-.42,4.86-1.27,1.2-.89,1.79-2.1,1.79-3.64,0-1.39-.52-2.56-1.56-3.53-1-.96-2.26-1.7-3.76-2.2-1.5-.5-3.16-1.1-4.97-1.79-1.77-.69-3.41-1.43-4.92-2.2-1.5-.77-2.78-1.95-3.82-3.53-1-1.58-1.5-3.47-1.5-5.67,0-3.39,1.21-6.11,3.64-8.15,2.43-2.08,5.76-3.12,10-3.12,3.59,0,6.57.81,8.96,2.43,2.39,1.58,3.97,3.74,4.74,6.48l-7,2.66c-1-3.51-3.35-5.26-7.05-5.26-1.89,0-3.35.4-4.39,1.21-1,.81-1.5,1.87-1.5,3.18s.5,2.43,1.5,3.35c1.04.89,2.31,1.56,3.82,2.02,1.54.46,3.2,1.06,4.97,1.79,1.77.69,3.41,1.46,4.92,2.31,1.54.81,2.81,2.06,3.82,3.76,1.04,1.7,1.56,3.72,1.56,6.07,0,3.43-1.33,6.21-3.99,8.33-2.66,2.08-6.26,3.12-10.81,3.12Z" style="fill:#fff;"/><path d="M178.27,65.49h7.63l-11.62,30.47-3.93,10.35h-7.23l4.16-10.35h-2.31l-10.76-30.47h7.58l7.86,24.58,8.62-24.58Z" style="fill:#fff;"/><path d="M138.13,64.79c4.36,0,7.92,1.52,10.7,4.57,2.81,3.01,4.22,6.8,4.22,11.39s-1.43,8.35-4.28,11.39c-2.85,3.01-6.46,4.51-10.81,4.51-3.93,0-7.11-1.31-9.54-3.93v13.59h-7.34v-40.83h6.82v3.99c2.51-3.12,5.92-4.68,10.24-4.68ZM136.98,90.18c2.51,0,4.59-.89,6.25-2.66,1.66-1.81,2.49-4.07,2.49-6.77s-.83-4.93-2.49-6.71c-1.66-1.81-3.74-2.72-6.25-2.72s-4.76.89-6.42,2.66c-1.62,1.73-2.43,3.99-2.43,6.77s.81,5.05,2.43,6.82c1.66,1.73,3.8,2.6,6.42,2.6Z" style="fill:#fff;"/><path d="M100.92,64.79c4.36,0,7.92,1.52,10.7,4.57,2.81,3.01,4.22,6.8,4.22,11.39s-1.43,8.35-4.28,11.39c-2.85,3.01-6.46,4.51-10.81,4.51-3.93,0-7.11-1.31-9.54-3.93v13.59h-7.34v-40.83h6.82v3.99c2.51-3.12,5.92-4.68,10.24-4.68ZM99.76,90.18c2.51,0,4.59-.89,6.25-2.66,1.66-1.81,2.49-4.07,2.49-6.77s-.83-4.93-2.49-6.71c-1.66-1.81-3.74-2.72-6.25-2.72s-4.76.89-6.42,2.66c-1.62,1.73-2.43,3.99-2.43,6.77s.81,5.05,2.43,6.82c1.66,1.73,3.8,2.6,6.42,2.6Z" style="fill:#fff;"/><path d="M70.24,65.49h6.82v30.47h-6.82v-4.11c-2.39,3.2-5.74,4.8-10.06,4.8s-7.96-1.5-10.81-4.51c-2.85-3.05-4.28-6.84-4.28-11.39s1.41-8.27,4.22-11.16c2.85-2.89,6.48-4.34,10.87-4.34s7.75,1.52,10.06,4.57v-4.34ZM61.17,90.18c2.62,0,4.74-.87,6.36-2.6,1.66-1.77,2.49-4.05,2.49-6.82s-.83-5.09-2.49-6.82c-1.62-1.73-3.74-2.6-6.36-2.6s-4.59.91-6.25,2.72c-1.66,1.77-2.49,4.01-2.49,6.71s.83,4.95,2.49,6.77c1.66,1.77,3.74,2.66,6.25,2.66Z" style="fill:#fff;"/><path d="M32.16,55.77h7.4v40.19h-7.4v-17.29H15.16v17.29h-7.4v-40.19h7.4v16.31h17v-16.31Z" style="fill:#fff;"/></svg>