<?xml version="1.0" encoding="UTF-8"?><svg id="a" xmlns="http://www.w3.org/2000/svg" viewBox="0 0 350 160"><path d="M286.54,43.65v1.98c-1.11,30.31-33.42,49.69-60.71,35.05-27.43-14.72-28.71-53.83-2.45-70.56,26.81-17.08,62.37,2,63.16,33.53ZM242.39,6.08c-27.93,2.1-44.5,32.79-30.8,57.38,13.73,24.64,48.74,26.76,65.24,3.79,19.22-26.76-1.78-63.62-34.44-61.17Z" style="fill:#fff;"/><path d="M150.44,16.96c3.72.23,8.22-.49,11.85-.06,1.37.16,1.53.88,1.89,2.07,2.81,9.36,3.31,20.47,5.98,29.93.56,1.99,1.42,4.77,3.04,1.45l6.09-32.3c.56-.84,1.09-1.07,2.06-1.16,2.48-.23,8.25-.28,10.67,0,1.2.14,1.88.86,1.86,2.1l-.2,59.5c-.68,2.05-5.51,1.71-7.37,1.56-2.29-.18-2.9-.48-3.1-2.85-.41-4.9.45-10.46,0-15.36-.06-.7-.65-3.68-1.38-3.83-.35-.03-.52.26-.7.5-1.23,1.56-2.82,12.3-3.48,15.09-.29,1.23-.87,4.61-1.5,5.44-.94,1.24-4.93,1.14-6.43.99-1.92-.19-2.24-.7-2.78-2.42-1.86-5.91-2.54-12.75-4.41-18.62-.32-1.01-.64-2.58-1.74-2.99-.86,0-1.06,2.94-1.11,3.61-.4,5.74.53,12.19,0,17.84-.09.95-.24,1.82-1.18,2.29-1.02.5-7.3.49-8.31,0-1.07-.52-1.11-1.71-1.18-2.78V19.74c.1-1.17.3-2.19,1.42-2.79Z" style="fill:#fff;"/><path d="M119.25,92.01c11.63-.96,17.29,5.81,17.9,16.88.49,8.91.55,21.36,0,30.23-.39,6.29-1.78,10.76-7.22,14.33-9.68,6.35-22.52.61-23.77-10.86.73-12.07-.94-25.22,0-37.16.53-6.71,6.4-12.86,13.09-13.41ZM120.99,102.64c-2,.1-4.05,1.67-4.18,3.77l.03,34.66c1.3,5.56,8.47,4.82,8.91-.96.8-10.68-.6-22.38-.04-33.17-.23-2.38-2.26-4.43-4.73-4.3Z" style="fill:#fff;"/><path d="M87.89,38.64c-.71-3.5.7-10.41-4.26-11.47-4.68-1-5.77,4.55-5.97,7.93-.46,7.51-.46,18.27,0,25.77.23,3.74,1.62,10.21,6.87,7.83,3.7-1.68,3.68-10.23,2.44-13.42-.86-2.22-3.82-.83-4.28-3.4-.22-1.24-.22-5.1-.06-6.39.19-1.59,1.09-2.18,2.61-2.35,2.26-.25,8.67-.28,10.88.02,1.5.21,1.97,1.15,2.13,2.58.46,4.14,0,10.03-.01,14.37-.02,6.57.85,11.38-4.58,16.2-9.74,8.65-25.07,2.83-25.88-10.27-.29-4.67.2-9.62,0-14.32-.08-.33-3.47-1.69-3.9-2.22-1.78-2.16,2.74-3.41,3.9-4.31.52-9.24-2.52-19.95,6.1-26.29,5.27-3.87,14.83-3.44,19.66,1.07,4.61,4.3,5.22,10.1,4.71,16.11-.13,1.49-.43,2.65-2.11,2.84s-5.26.15-6.95,0c-.45-.04-.91-.04-1.29-.32Z" style="fill:#fff;"/><path d="M68.21,120.86c.09-4.15.06-8.31.06-12.47,0-3.02-.33-3.93.94-6.97,3.13-7.51,10.74-10.07,18.43-8.43,3.6.77,8.95,5.78,10.03,9.29.72,2.34,1.42,9.86.38,11.87-.73,1.4-5.84,1.18-7.38,1.07-4.34-.31-2.51-3.27-2.84-6.57-.69-7.01-8.76-7.16-9.66-.25.58,9.97-.79,20.85-.01,30.71.28,3.55,2.53,7.46,6.62,5.61,4.3-1.95,2.58-7.28,3.08-10.79.29-2.06,2.05-2,3.82-2.13,1.29-.09,6-.23,6.45,1.22.17.52.33,2.42.37,3.1.54,8.95-2.04,17.77-11.85,19.88-7.44,1.6-17.67-3.71-18.39-11.7-.47-5.29.38-11.19-.04-16.55-.9-1.24-4.31-1.86-4.31-3.51s3.15-2.57,4.3-3.39Z" style="fill:#fff;"/><path d="M225.41,118.12c1.33,1.32,6.3.66,8.24.8,3.24.23,3.38.67,3.58,3.85.07,1.12-.01,5.56-.75,6.18-1.38,1.16-7.21.37-9.26.65s-2.44,1.69-2.62,3.57c-.19,2.06-.25,6.91.02,8.89.13.95.65,1.99,1.54,2.43,2.41,1.18,10.22.09,13.43.44,1.27.14,2.2.47,2.36,1.85s.15,6.98-.48,7.88c-.21.3-.69.37-1,.54l-23.93.13c-1.63.01-2.61-.97-2.6-2.6v-57.22c.01-1.22.51-2.29,1.86-2.35,7.66.54,16.26-.7,23.8,0,.8.07,1.63.14,2.04.93.45.86.48,6.77.11,7.68-.44,1.1-1.85,1.23-2.9,1.31-3.68.28-8.09-.44-11.66-.01-1.66.2-2.42,1.26-2.6,2.85-.25,2.28-.22,7.35,0,9.67.06.63.41,2.11.82,2.52Z" style="fill:#fff;"/><path d="M250.79,93.23l23.99-.06c.72.11,1.81.08,2.16.81.57,1.2.67,6.76.12,7.93-.45.96-2.04,1.11-3.03,1.19-3.42.27-9.02-.62-12.04.1-1.87.45-2.1,2.59-2.22,4.22-.18,2.47-.11,6.49.25,8.93.57,3.8,5.96,2.38,8.81,2.58,1.13.08,2.76.11,3.28,1.18.43.9.48,6.44.29,7.6-.07.47-.45,1.15-.84,1.39-2.4,1.49-9.54-.83-11.01,1.62-.5.84-.72,3.79-.78,4.91-.09,1.82-.27,7.43,1.16,8.52,1.98,1.52,10.85.49,13.85.77,1.49.14,2.35.56,2.57,2.14s.43,7.58-1.45,8.16l-24.42.12c-.91-.03-1.62-.7-1.99-1.48l-.12-58.59c-.04-.97.49-1.77,1.43-2.04Z" style="fill:#fff;"/><path d="M106.72,17.21c.77-.76,6.87-.66,8.25-.56,2.38.17,2.62.56,3.52,2.67,1.67,3.9,2.37,9.37,4.14,12.94.23.46.96,1.49,1.49,1.49.6-.1.88-.62,1.13-1.11,1.92-3.89,2.69-9.66,4.51-13.82.59-1.36.93-1.98,2.54-2.16s6.88-.15,8.37.3c.83.25,1.12,1.7.81,2.44-2.82,8.6-6.23,17.02-9.06,25.61-.96,2.9-2.77,7.51-2.98,10.4-.12,1.67.25,3.17.27,4.7.05,4.81-.01,9.59-.27,14.36-.08,1.53.61,4.65-1.22,5.22-.81.25-6.56.25-7.56.1-1.59-.25-1.78-1.72-1.88-3.07-.52-6.75.74-14.6-.06-21.24-.27-2.28-1.6-5.77-2.34-8.06-2.87-8.81-6.76-17.76-9.3-26.61-.24-.85-1.01-2.96-.37-3.6Z" style="fill:#fff;"/><path d="M146.48,92.98l24.21-.04c1.69.27,1.76,1.9,1.87,3.33.1,1.31.15,5.47-1.05,6.12-2.17,1.18-10.79.04-13.91.46-1.21.16-1.98.68-2.36,1.85-.52,1.57-.44,8.94-.27,10.89.44,5,7,2.91,10.55,3.33,1.44.17,1.91,1.06,2.07,2.39.19,1.54.47,7.37-1.2,7.91l-9.04.37c-1.54.23-2.21,1.65-2.37,3.08-.74,6.55.94,14.87-.25,21.29-.13.69-.96,1.25-1.62,1.35-.97.15-5.99.15-6.81-.1-1.38-.42-1.23-1.83-1.47-2.99v-55.72c.26-1.37.03-3.07,1.66-3.53Z" style="fill:#fff;"/><path d="M206.94,93.49c.25.27.52,2.05.56,2.54.1,1.27.15,5.6-.89,6.28-1.9,1.25-11.12.13-14.07.54-2.17.31-2.49,1.88-2.63,3.81s-.24,9.3.45,10.71c.15.31.4.61.67.82,2.13,1.64,9.65-.12,10.96,1.3.75.81.73,6.91.5,8.17-.14.81-.53,1.4-1.36,1.62l-8.85.32c-1.92.29-2.25,2.18-2.38,3.81-.48,6.05.49,12.78.02,18.84-.06.8-.22,2.38-.92,2.79s-6.88.46-7.77.18c-.81-.25-1.29-1.16-1.24-1.98l.12-59.09c.34-.83,1.09-1.28,1.98-1.24,7.43.53,15.74-.66,23.07,0,.48.04,1.47.23,1.78.57Z" style="fill:#fff;"/><path d="M244.61,9.05c26.67-.54,44.87,27.05,33.22,51.27-11.96,24.87-46.85,27.24-62.16,4.25-15.56-23.35,1-54.96,28.94-55.53ZM252.59,39.44c.84-6.02,6.97-17.16,2.58-22.51-3.87-4.72-7.06,1.69-8.4,4.93-2.25,5.47-3.45,11.82-4.85,17.57-6.26.2-13.29-.27-19.37,1.32-2.59.68-6.4,2.17-5.88,5.48.29,1.87,4.47,2.61,6.09,2.84,5.48.77,11.16.45,16.69.53-.83,6.02-4.7,17.16-.74,22.41,1.84,2.45,5.11,3.06,7.04.36,1.65-2.31,2.14-10.21,2.69-13.41s1.22-6.08,1.78-9.12c1.91-.51,4.21-.32,6.2-.49,4.18-.35,15.61-1.28,17.77-5.27,1.01-1.87.34-3.04-1.54-3.76-.86-.33-3.72-.87-4.58-.87h-15.49Z" style="fill:#fff;"/></svg>